<svg xmlns="http://www.w3.org/2000/svg" xmlns:xlink="http://www.w3.org/1999/xlink" width="50" height="50" viewBox="0 0 50 50">
  <defs>
    <filter id="Path_8" x="35" y="35" width="471.77" height="470.212" filterUnits="userSpaceOnUse">
      <feOffset dy="5" input="SourceAlpha"/>
      <feGaussianBlur stdDeviation="4" result="blur"/>
      <feFlood flood-opacity="0.078"/>
      <feComposite operator="in" in2="blur"/>
      <feComposite in="SourceGraphic"/>
    </filter>
    <clipPath id="clip-music-logo">
      <rect width="50" height="50"/>
    </clipPath>
  </defs>
  <g id="music-logo" clip-path="url(#clip-music-logo)">
    <g id="d6940c82c171dad46546dde1324f1927" transform="translate(36 35)">
      <g id="Group_4" data-name="Group 4" transform="translate(11 7)">
        <g transform="matrix(1, 0, 0, 1, -47, -42)" filter="url(#Path_8)">
          <path id="Path_8-2" data-name="Path 8" d="M9.635,132.808C24.782,59.782,71.388,19.109,144.085,6.822a470.581,470.581,0,0,1,161.15.255c74.852,13.185,119.85,56.23,134.185,130.36a444.717,444.717,0,0,1-.174,172.427c-15.324,72.52-63.132,117.285-135.561,129.527a470.631,470.631,0,0,1-161.15-.255C67.683,425.95,22.485,380.756,8.151,306.627c-11.64-57.668-10.52-115.935,1.484-173.82Z" transform="translate(47 42)"/>
        </g>
        <path id="Path_9" data-name="Path 9" d="M9.635,132.808C24.782,59.782,71.388,19.109,144.085,6.822a470.581,470.581,0,0,1,161.15.255c74.852,13.185,119.85,56.23,134.185,130.36a444.717,444.717,0,0,1-.174,172.427c-15.324,72.52-63.132,117.285-135.561,129.527a470.631,470.631,0,0,1-161.15-.255C67.683,425.95,22.485,380.756,8.151,306.627c-11.64-57.668-10.52-115.935,1.484-173.82Z" fill="#f8f9f9"/>
      </g>
      <path id="Path_10" data-name="Path 10" d="M247.744,130a31,31,0,0,0-61.6,1H186V282.592h-.041q.04.495.041,1a12,12,0,0,1-24,0q0-.506.041-1H162V211a31,31,0,0,0-62,0q0,.5.016,1H100v14H73v19h41.994A4,4,0,0,0,119,241V212h.041q-.041-.5-.041-1a12,12,0,0,1,24,0q0,.506-.041,1H143v72h0a31,31,0,0,0,62-.408q0-1.055-.07-2.092H205V135h.041q-.041-.5-.041-1a12,12,0,0,1,24,0q0,.506-.041,1H229V357h19V130Zm82.225,131A31,31,0,0,1,268,259.592c0-.2,0-.395.006-.592H268V143h19V258.592h.041q-.041.495-.041,1a12,12,0,0,0,24,0q0-.506-.041-1H311V209h.063a31,31,0,0,1,61.921,1H373v10h24v19H358.006A4,4,0,0,1,354,235V212h-.041q.041-.5.041-1a12,12,0,0,0-24,0q0,.506.041,1H330v49Z" fill="#ff5439" fill-rule="evenodd"/>
    </g>
    <rect id="Rectangle_1" data-name="Rectangle 1" width="44" height="44" rx="6" transform="translate(3 3)" fill="#212121"/>
    <g id="d6940c82c171dad46546dde1324f1927-2" data-name="d6940c82c171dad46546dde1324f1927" transform="translate(-8.999 -3.511)">
      <path id="Path_13" data-name="Path 13" d="M93.264,106.249a3.583,3.583,0,0,0-7.144.12H86.1v18.239h0q0,.06,0,.12a1.393,1.393,0,1,1-2.783,0q0-.061,0-.12h0v-8.614a3.6,3.6,0,1,0-7.19,0q0,.06,0,.12h0V117.8H73v2.286h4.87a.455.455,0,0,0,.328-.141.49.49,0,0,0,.136-.34v-3.49h0q0-.06,0-.12a1.393,1.393,0,1,1,2.783,0q0,.061,0,.12h0v8.663h0a3.6,3.6,0,1,0,7.19-.049q0-.127-.008-.252h.008V106.85h0q0-.06,0-.12a1.393,1.393,0,1,1,2.783,0q0,.061,0,.12h0v26.71h2.2V106.249ZM102.8,122.01a3.595,3.595,0,1,1-7.186-.169c0-.024,0-.048,0-.071h0V107.813h2.2V121.72h0q0,.06,0,.12a1.393,1.393,0,1,0,2.783,0q0-.061,0-.12h0v-5.967h.007a3.591,3.591,0,0,1,7.181.12h0v1.2h2.783v2.286h-4.522a.473.473,0,0,1-.465-.481v-2.767h0q0-.06,0-.12a1.393,1.393,0,1,0-2.783,0q0,.061,0,.12h0v5.9Z" transform="translate(-57.59 -88.644)" fill="#bb86fc" fill-rule="evenodd"/>
    </g>
  </g>
</svg>
